<?xml version="1.0" encoding="UTF-8" standalone="no"?>
<!-- Created with Inkscape (http://www.inkscape.org/) -->

<svg
   width="210mm"
   height="297mm"
   viewBox="0 0 210 297"
   version="1.1"
   id="svg1"
   inkscape:version="1.3.2 (091e20e, 2023-11-25, custom)"
   sodipodi:docname="number_foil_roemisch.svg"
   xmlns:inkscape="http://www.inkscape.org/namespaces/inkscape"
   xmlns:sodipodi="http://sodipodi.sourceforge.net/DTD/sodipodi-0.dtd"
   xmlns="http://www.w3.org/2000/svg"
   xmlns:svg="http://www.w3.org/2000/svg">
  <sodipodi:namedview
     id="namedview1"
     pagecolor="#ffffff"
     bordercolor="#000000"
     borderopacity="0.25"
     inkscape:showpageshadow="2"
     inkscape:pageopacity="0.0"
     inkscape:pagecheckerboard="0"
     inkscape:deskcolor="#d1d1d1"
     inkscape:document-units="mm"
     inkscape:zoom="1.0449705"
     inkscape:cx="397.14038"
     inkscape:cy="867.48857"
     inkscape:window-width="3440"
     inkscape:window-height="1369"
     inkscape:window-x="1912"
     inkscape:window-y="352"
     inkscape:window-maximized="1"
     inkscape:current-layer="layer2" />
  <defs
     id="defs1" />
  <g
     inkscape:label="Ebene 1"
     inkscape:groupmode="layer"
     id="layer1">
    <path
       id="path1"
       d="M 70.87983,86.030533 H 55.851492 v -1.60865 H 70.87983 Z"
       style="fill:none;stroke:#000000;stroke-width:0.132292;stroke-linecap:round;stroke-linejoin:round;stroke-miterlimit:10;stroke-dasharray:none;stroke-opacity:1" />
    <path
       id="path2"
       d="m 18.301828,158.29355 10.879666,3.21733 v 1.73567 l -14.985999,-4.78367 v -1.651 l 14.985999,-4.826 v 1.651 l -10.879666,3.34434 m -2.455333,0.67733 0.296333,-0.0847 0.296333,-0.0847 0.296334,-0.0847 0.338666,-0.0847 0.296334,-0.0847 0.296333,-0.0847 0.296333,-0.0847 0.338667,-0.0847 m 0,1.31233 -0.338667,-0.0847 -0.296333,-0.0847 -0.338667,-0.0847 -0.296333,-0.0847 -0.296333,-0.0847 -0.296334,-0.0847 -0.296333,-0.0847 -0.296333,-0.0423"
       style="fill:none;stroke:#000000;stroke-width:0.132292;stroke-linecap:round;stroke-linejoin:round;stroke-miterlimit:10;stroke-dasharray:none;stroke-opacity:1" />
    <path
       id="path3"
       d="M 70.668158,218.61854 H 55.682161 v -1.60866 h 14.985997 z"
       style="fill:none;stroke:#000000;stroke-width:0.132292;stroke-linecap:round;stroke-linejoin:round;stroke-miterlimit:10;stroke-dasharray:none;stroke-opacity:1" />
    <path
       id="path4"
       d="M 112.66283,245.58487 H 97.676827 v -1.60866 h 14.986003 z"
       style="fill:none;stroke:#000000;stroke-width:0.132292;stroke-linecap:round;stroke-linejoin:round;stroke-miterlimit:10;stroke-dasharray:none;stroke-opacity:1" />
    <path
       id="path5"
       d="m 184.75649,191.35587 h -14.98601 v -1.60867 h 14.98601 z"
       style="fill:none;stroke:#000000;stroke-width:0.132292;stroke-linecap:round;stroke-linejoin:round;stroke-miterlimit:10;stroke-dasharray:none;stroke-opacity:1" />
    <path
       id="path6"
       d="m 154.06482,81.373873 h -14.986 v -1.651 h 14.986 z"
       style="fill:none;stroke:#000000;stroke-width:0.132292;stroke-linecap:round;stroke-linejoin:round;stroke-miterlimit:10;stroke-dasharray:none;stroke-opacity:1" />
    <path
       id="path7"
       d="m 195.84781,152.6632 h -15.02832 v -1.65099 h 15.02832 z"
       style="fill:none;stroke:#000000;stroke-width:0.132292;stroke-linecap:round;stroke-linejoin:round;stroke-miterlimit:10;stroke-dasharray:none;stroke-opacity:1" />
    <path
       id="path8"
       d="m 195.84781,147.87953 h -15.02832 v -1.651 h 15.02832 z"
       style="fill:none;stroke:#000000;stroke-width:0.132292;stroke-linecap:round;stroke-linejoin:round;stroke-miterlimit:10;stroke-dasharray:none;stroke-opacity:1" />
    <path
       id="path9"
       d="M 112.95916,77.394543 H 97.930835 v -1.65099 h 15.028325 z"
       style="fill:none;stroke:#000000;stroke-width:0.132292;stroke-linecap:round;stroke-linejoin:round;stroke-miterlimit:10;stroke-dasharray:none;stroke-opacity:1" />
    <path
       id="path10"
       d="m 180.77716,197.66353 3.97933,-2.49766 m -5.715,3.47133 0.127,-0.0423 0.0847,-0.0423 0.127,-0.0423 0.0847,-0.0847 0.127,-0.0423 0.0847,-0.0423 0.127,-0.0847 0.0847,-0.0423 0.127,-0.0847 0.0847,-0.0423 0.127,-0.0847 0.0847,-0.0423 0.127,-0.0847 0.127,-0.0423 0.0847,-0.0847 0.127,-0.0847 m 0.127,1.94733 -0.127,-0.0847 -0.16933,-0.0847 -0.127,-0.0423 -0.127,-0.0847 -0.127,-0.0847 -0.127,-0.0847 -0.127,-0.0423 -0.127,-0.0847 -0.0847,-0.0423 -0.127,-0.0423 -0.0847,-0.0847 -0.127,-0.0423 -0.0847,-0.0423 -0.0847,-0.0423 -0.127,-0.0423 -0.0847,-0.0423 m 1.86267,0.97367 3.85233,2.24367 v 1.94733 l -7.19666,-4.191 -7.78934,4.74133 V 202.405 l 5.207,-3.09033 m 1.143,-0.59267 -0.127,0.0423 -0.0847,0.0847 -0.0847,0.0423 -0.0847,0.0423 -0.0847,0.0423 -0.0847,0.0423 -0.0847,0.0423 -0.0847,0.0423 -0.0423,0.0423 h -0.0847 l -0.0423,0.0423 -0.0423,0.0423 -0.0847,0.0423 h -0.0423 l -0.0423,0.0423 h -0.0423 m 0.127,-1.10067 0.127,0.0423 0.0847,0.0847 0.127,0.0423 0.127,0.0847 0.127,0.0847 0.127,0.0423 0.127,0.0847 0.16933,0.0423 m -1.016,-0.508 -5.334,-3.13266 v -1.98967 l 7.91634,4.65667 7.06966,-4.318 v 1.73566"
       style="fill:none;stroke:#000000;stroke-width:0.132292;stroke-linecap:round;stroke-linejoin:round;stroke-miterlimit:10;stroke-dasharray:none;stroke-opacity:1" />
    <path
       id="path11"
       d="M 70.668158,228.18587 H 55.682161 v -1.60867 h 14.985997 z"
       style="fill:none;stroke:#000000;stroke-width:0.132292;stroke-linecap:round;stroke-linejoin:round;stroke-miterlimit:10;stroke-dasharray:none;stroke-opacity:1" />
    <path
       id="path12"
       d="M 40.399825,189.02754 H 25.413831 v -1.60867 h 14.985994 z"
       style="fill:none;stroke:#000000;stroke-width:0.132292;stroke-linecap:round;stroke-linejoin:round;stroke-miterlimit:10;stroke-dasharray:none;stroke-opacity:1" />
    <path
       id="path13"
       d="M 29.181495,150.2502 H 14.195492 v -1.65099 h 14.986003 z"
       style="fill:none;stroke:#000000;stroke-width:0.132292;stroke-linecap:round;stroke-linejoin:round;stroke-miterlimit:10;stroke-dasharray:none;stroke-opacity:1" />
    <path
       id="path14"
       d="M 70.87983,81.289203 H 55.851492 v -1.65099 H 70.87983 Z"
       style="fill:none;stroke:#000000;stroke-width:0.132292;stroke-linecap:round;stroke-linejoin:round;stroke-miterlimit:10;stroke-dasharray:none;stroke-opacity:1" />
    <path
       id="path15"
       d="M 70.87983,90.814203 H 55.851492 v -1.60867 H 70.87983 Z"
       style="fill:none;stroke:#000000;stroke-width:0.132292;stroke-linecap:round;stroke-linejoin:round;stroke-miterlimit:10;stroke-dasharray:none;stroke-opacity:1" />
    <path
       id="path16"
       d="m 29.520162,201.85454 10.879666,3.21733 v 1.778 l -14.985999,-4.78366 v -1.69334 l 14.985999,-4.78366 v 1.651 l -10.879666,3.34433 m -2.455333,0.635 0.296333,-0.0847 0.338667,-0.0423 0.296333,-0.0847 0.296333,-0.0847 0.296334,-0.0847 0.338666,-0.0847 0.296334,-0.0847 0.296333,-0.0847 m 0,1.27 -0.296333,-0.0847 -0.338667,-0.0847 -0.296333,-0.0847 -0.296334,-0.0847 -0.338666,-0.0847 -0.296334,-0.0847 -0.296333,-0.0423 -0.296333,-0.0847"
       style="fill:none;stroke:#000000;stroke-width:0.132292;stroke-linecap:round;stroke-linejoin:round;stroke-miterlimit:10;stroke-dasharray:none;stroke-opacity:1" />
    <path
       id="path17"
       d="M 70.668158,223.4022 H 55.682161 v -1.60866 h 14.985997 z"
       style="fill:none;stroke:#000000;stroke-width:0.132292;stroke-linecap:round;stroke-linejoin:round;stroke-miterlimit:10;stroke-dasharray:none;stroke-opacity:1" />
    <path
       id="path18"
       d="m 108.68349,235.67887 3.97933,-2.49766 m -5.67267,3.47133 0.0847,-0.0423 0.0847,-0.0847 0.127,-0.0423 0.0847,-0.0423 0.127,-0.0847 0.0847,-0.0423 0.127,-0.0423 0.0847,-0.0847 0.127,-0.0423 0.0847,-0.0847 0.127,-0.0423 0.0847,-0.0847 0.127,-0.0423 0.127,-0.0847 0.0847,-0.0847 0.127,-0.0423 m 0.127,1.94733 -0.127,-0.0847 -0.127,-0.0847 -0.16933,-0.0847 -0.127,-0.0847 -0.127,-0.0423 -0.127,-0.0847 -0.127,-0.0847 -0.0847,-0.0423 -0.127,-0.0847 -0.127,-0.0423 -0.0847,-0.0423 -0.127,-0.0423 -0.0847,-0.0423 -0.0847,-0.0423 -0.0847,-0.0423 -0.0847,-0.0423 m 1.82033,0.97367 3.85234,2.24367 v 1.94733 l -7.15434,-4.23333 -7.83166,4.78366 v -1.94733 l 5.207,-3.09033 m 1.143,-0.59267 -0.0847,0.0423 -0.127,0.0423 -0.0847,0.0423 -0.0847,0.0423 -0.0847,0.0423 -0.0847,0.0423 -0.0847,0.0423 -0.0423,0.0423 -0.0847,0.0423 -0.0847,0.0423 -0.0423,0.0423 h -0.0423 l -0.0423,0.0423 -0.0847,0.0423 h -0.0423 l -0.0423,0.0423 m 0.127,-1.143 0.127,0.0847 0.127,0.0423 0.0847,0.0847 0.127,0.0423 0.127,0.0847 0.16933,0.0847 0.127,0.0423 0.127,0.0847 m -1.016,-0.55033 -5.333997,-3.09034 v -1.98966 l 7.916327,4.61433 7.06967,-4.27567 v 1.73567"
       style="fill:none;stroke:#000000;stroke-width:0.132292;stroke-linecap:round;stroke-linejoin:round;stroke-miterlimit:10;stroke-dasharray:none;stroke-opacity:1" />
    <path
       id="path19"
       d="M 112.95916,67.827203 H 97.930835 v -1.65099 h 15.028325 z"
       style="fill:none;stroke:#000000;stroke-width:0.132292;stroke-linecap:round;stroke-linejoin:round;stroke-miterlimit:10;stroke-dasharray:none;stroke-opacity:1" />
    <path
       id="path20"
       d="m 154.06482,86.157543 h -14.986 v -1.651 h 14.986 z"
       style="fill:none;stroke:#000000;stroke-width:0.132292;stroke-linecap:round;stroke-linejoin:round;stroke-miterlimit:10;stroke-dasharray:none;stroke-opacity:1" />
    <path
       id="path21"
       d="m 191.86849,158.97088 3.97933,-2.49767 m -5.715,3.47134 0.127,-0.0423 0.0847,-0.0847 0.0847,-0.0423 0.127,-0.0423 0.0847,-0.0423 0.127,-0.0847 0.0847,-0.0423 0.127,-0.0847 0.0847,-0.0423 0.127,-0.0847 0.0847,-0.0423 0.127,-0.0847 0.127,-0.0423 0.0847,-0.0847 0.127,-0.0847 0.127,-0.0423 m 0.127,1.94733 -0.127,-0.0847 -0.16933,-0.0847 -0.127,-0.0847 -0.127,-0.0847 -0.127,-0.0423 -0.127,-0.0847 -0.127,-0.0847 -0.127,-0.0423 -0.127,-0.0423 -0.0847,-0.0847 -0.127,-0.0423 -0.0847,-0.0423 -0.0847,-0.0423 -0.127,-0.0423 -0.0847,-0.0423 -0.0847,-0.0423 m 1.86267,0.97366 3.85233,2.24367 v 1.94733 l -7.19666,-4.23333 -7.83167,4.78367 v -1.94734 l 5.24933,-3.09033 m 1.10067,-0.59267 -0.0847,0.0423 -0.0847,0.0423 -0.0847,0.0423 -0.0847,0.0423 -0.0847,0.0423 -0.0847,0.0423 -0.0847,0.0423 -0.0847,0.0423 -0.0423,0.0423 -0.0847,0.0423 -0.0423,0.0423 h -0.0847 l -0.0423,0.0423 -0.0423,0.0423 h -0.0423 l -0.0423,0.0423 m 0.127,-1.143 0.0847,0.0847 0.127,0.0423 0.127,0.0847 0.127,0.0847 0.127,0.0423 0.127,0.0847 0.127,0.0423 0.127,0.0847 m -0.97367,-0.55033 -5.37633,-3.09033 v -1.98967 l 7.95867,4.61433 7.06966,-4.27566 v 1.73566"
       style="fill:none;stroke:#000000;stroke-width:0.132292;stroke-linecap:round;stroke-linejoin:round;stroke-miterlimit:10;stroke-dasharray:none;stroke-opacity:1" />
    <path
       id="path22"
       d="m 185.13749,114.35154 h -14.98601 v -1.60867 h 14.98601 z"
       style="fill:none;stroke:#000000;stroke-width:0.132292;stroke-linecap:round;stroke-linejoin:round;stroke-miterlimit:10;stroke-dasharray:none;stroke-opacity:1" />
    <path
       id="path23"
       d="M 112.95916,72.610873 H 97.930835 v -1.651 h 15.028325 z"
       style="fill:none;stroke:#000000;stroke-width:0.132292;stroke-linecap:round;stroke-linejoin:round;stroke-miterlimit:10;stroke-dasharray:none;stroke-opacity:1" />
    <path
       id="path24"
       d="m 150.25482,226.74654 3.97933,-2.49767 m -5.67267,3.47134 0.0847,-0.0423 0.127,-0.0423 0.0847,-0.0847 0.0847,-0.0423 0.127,-0.0423 0.0847,-0.0847 0.127,-0.0423 0.0847,-0.0423 0.127,-0.0847 0.0847,-0.0423 0.127,-0.0847 0.127,-0.0847 0.0847,-0.0423 0.127,-0.0847 0.0847,-0.0423 0.127,-0.0847 m 0.127,1.94733 -0.127,-0.0847 -0.127,-0.0847 -0.16933,-0.0847 -0.127,-0.0847 -0.127,-0.0423 -0.127,-0.0847 -0.127,-0.0423 -0.0847,-0.0847 -0.127,-0.0423 -0.127,-0.0847 -0.0847,-0.0423 -0.127,-0.0423 -0.0847,-0.0423 -0.0847,-0.0423 -0.0847,-0.0423 -0.0847,-0.0423 m 1.82033,0.97367 3.85234,2.24366 v 1.94734 l -7.15434,-4.191 -7.83166,4.74133 v -1.94733 l 5.207,-3.09034 m 1.143,-0.59266 -0.0847,0.0423 -0.127,0.0423 -0.0847,0.0423 -0.0847,0.0847 -0.0847,0.0423 -0.0847,0.0423 -0.0847,0.0423 h -0.0423 l -0.0847,0.0423 -0.0423,0.0423 -0.0847,0.0423 -0.0423,0.0423 h -0.0423 l -0.0847,0.0423 -0.0423,0.0423 h -0.0423 m 0.127,-1.10067 0.127,0.0423 0.127,0.0847 0.127,0.0423 0.0847,0.0847 0.127,0.0423 0.16933,0.0847 0.127,0.0423 0.127,0.0847 m -1.016,-0.508 -5.334,-3.13267 v -1.98966 l 7.95867,4.65666 7.02733,-4.318 v 1.73569 m -94.487992,11.98034 10.922,3.21733 v 1.778 l -14.986002,-4.78367 v -1.69333 l 14.986002,-4.78367 v 1.651 l -10.922,3.34434 m -2.455333,0.635 0.338666,-0.0847 0.296334,-0.0423 0.29633,-0.0847 0.338667,-0.0847 0.296333,-0.0847 0.296331,-0.0847 0.296333,-0.0847 0.296339,-0.0847 m 0,1.27 -0.296339,-0.0847 -0.296333,-0.0847 -0.338666,-0.0847 -0.296331,-0.0847 -0.296334,-0.0847 -0.29633,-0.0423 -0.338667,-0.0847 -0.296333,-0.0847"
       style="fill:none;stroke:#000000;stroke-width:0.132292;stroke-linecap:round;stroke-linejoin:round;stroke-miterlimit:10;stroke-dasharray:none;stroke-opacity:1" />
    <path
       id="path25"
       d="M 40.399825,193.8112 H 25.413831 v -1.60866 h 14.985994 z"
       style="fill:none;stroke:#000000;stroke-width:0.132292;stroke-linecap:round;stroke-linejoin:round;stroke-miterlimit:10;stroke-dasharray:none;stroke-opacity:1" />
    <path
       id="path26"
       d="m 29.139162,114.05521 10.879666,3.21733 v 1.73567 l -14.985999,-4.78367 v -1.651 l 14.985999,-4.826 v 1.651 l -10.879666,3.34434 m -2.455333,0.67733 0.296333,-0.0847 0.338667,-0.0847 0.296333,-0.0847 0.296333,-0.0847 0.296334,-0.0847 0.338666,-0.0847 0.296334,-0.0847 0.296333,-0.0847 m 0,1.31233 -0.296333,-0.0847 -0.338667,-0.0847 -0.296333,-0.0847 -0.338667,-0.0847 -0.296333,-0.0847 -0.296334,-0.0847 -0.296333,-0.0847 -0.296333,-0.0423"
       style="fill:none;stroke:#000000;stroke-width:0.132292;stroke-linecap:round;stroke-linejoin:round;stroke-miterlimit:10;stroke-dasharray:none;stroke-opacity:1" />
    <path
       id="path27"
       d="M 70.87983,76.505533 H 55.851492 v -1.651 H 70.87983 Z"
       style="fill:none;stroke:#000000;stroke-width:0.132292;stroke-linecap:round;stroke-linejoin:round;stroke-miterlimit:10;stroke-dasharray:none;stroke-opacity:1" />
    <path
       id="path28"
       d="m 105.08516,50.216543 3.302,0.0423 3.302,0.16934 3.25966,0.254 3.302,0.381 3.25967,0.46566 3.25967,0.55034 3.21733,0.67733 3.21733,0.762 3.175,0.84667 3.13267,0.97366 3.13266,1.10067 3.09034,1.143 3.048,1.27 3.00567,1.35467 2.96333,1.43933 2.921,1.56633 2.83633,1.60867 2.83634,1.73567 2.75166,1.82033 2.70934,1.905 2.62466,1.94733 2.58234,2.07434 2.49766,2.159 2.45533,2.20133 2.37067,2.286 2.286,2.37067 2.20134,2.45533 2.159,2.49767 2.07433,2.58233 1.94733,2.62467 1.905,2.70933 1.82034,2.75167 1.73566,2.836327 1.60866,2.83634 1.56634,2.92099 1.43934,2.96334 1.35466,3.00566 1.27,3.048 1.143,3.09033 1.10067,3.13267 0.97366,3.13267 0.84667,3.175 0.762,3.21733 0.67734,3.21733 0.55033,3.25967 0.46567,3.25967 0.381,3.302 0.25399,3.25967 0.16934,3.302 0.0423,3.30199 -0.0423,3.30201 -0.16934,3.302 -0.25399,3.25966 -0.381,3.302 -0.46567,3.25967 -0.55033,3.25967 -0.67734,3.21733 -0.762,3.21733 -0.84667,3.175 -0.97366,3.13266 -1.10067,3.13268 -1.143,3.09033 -1.27,3.048 -1.35466,3.00567 -1.43934,2.96333 -1.56634,2.921 -1.60866,2.83632 -1.73566,2.83635 -1.82034,2.75167 -1.905,2.70933 -1.94733,2.62466 -2.07433,2.58234 -2.159,2.49767 -2.20134,2.45532 -2.286,2.37067 -2.37067,2.28601 -2.45533,2.20133 -2.49766,2.159 -2.58234,2.07434 -2.62466,1.94733 -2.70934,1.905 -2.75166,1.82034 -2.83634,1.73566 -2.83633,1.60866 -2.921,1.56634 -2.96333,1.43934 -3.00567,1.35466 -3.048,1.27 -3.09034,1.143 -3.13266,1.10066 -3.13267,0.97366 -3.175,0.84667 -3.21733,0.762 -3.21733,0.67734 -3.25967,0.55033 -3.25967,0.46567 -3.302,0.38101 -3.25966,0.25398 -3.302,0.16934 -3.302,0.0423 -3.302,-0.0423 -3.301999,-0.16934 -3.259666,-0.25398 -3.302,-0.38101 -3.259668,-0.46567 -3.259666,-0.55033 -3.217333,-0.67734 -3.217334,-0.762 -3.174999,-0.84667 -3.132667,-0.97366 -3.132664,-1.10066 -3.090336,-1.143 -3.048003,-1.27 -3.005666,-1.35466 -2.963331,-1.43934 -2.921,-1.56634 -2.836333,-1.60866 -2.836333,-1.73566 -2.751664,-1.82034 -2.709336,-1.905 -2.624667,-1.94733 -2.582336,-2.07434 -2.497661,-2.159 -2.455333,-2.20133 -2.370672,-2.28601 -2.285998,-2.37067 -2.201336,-2.45532 -2.159,-2.49767 -2.074333,-2.58234 -1.947328,-2.62466 -1.905003,-2.70933 -1.820336,-2.75167 -1.735666,-2.83635 -1.608662,-2.83632 -1.566338,-2.921 -1.439333,-2.96333 -1.3546638,-3.00567 -1.269998,-3.048 -1.143002,-3.09033 -1.100667,-3.13268 -0.973667,-3.13266 -0.846669,-3.175 -0.762,-3.21733 -0.677333,-3.21733 -0.550331,-3.25967 -0.46566897,-3.25967 -0.381,-3.302 -0.25399796,-3.25966 -0.169336,-3.302 -0.04233,-3.30201 0.04233,-3.30199 0.169336,-3.302 0.25399796,-3.25967 0.381,-3.302 0.46566897,-3.25967 0.550331,-3.25967 0.677333,-3.21733 0.762,-3.21733 0.846669,-3.175 0.973667,-3.13267 1.100667,-3.13267 1.143002,-3.09033 1.269998,-3.048 1.3546638,-3.00566 1.439333,-2.96334 1.566338,-2.92099 1.608662,-2.83634 1.735666,-2.836327 1.820336,-2.75167 1.905003,-2.70933 1.947328,-2.62467 2.074333,-2.58233 2.159,-2.49767 2.201336,-2.45533 2.285998,-2.37067 2.370672,-2.286 2.455333,-2.20133 2.497661,-2.159 2.582336,-2.07434 2.624667,-1.94733 2.709336,-1.905 2.751664,-1.82033 2.836333,-1.73567 2.836333,-1.60867 2.921,-1.56633 2.963331,-1.43933 3.005666,-1.35467 3.048003,-1.27 3.090336,-1.143 3.132664,-1.10067 3.132667,-0.97366 3.174999,-0.84667 3.217334,-0.762 3.217333,-0.67733 3.259666,-0.55034 3.259668,-0.46566 3.302,-0.381 3.259666,-0.254 3.301999,-0.16934 z"
       style="fill:none;stroke:#000000;stroke-width:0.132292;stroke-linecap:round;stroke-linejoin:round;stroke-miterlimit:10;stroke-dasharray:none;stroke-opacity:1" />
  </g>
  <g
     inkscape:groupmode="layer"
     id="layer2"
     inkscape:label="Ebene 2">
    <rect
       style="fill:none;stroke:#000000;stroke-width:0.1;stroke-linecap:round;stroke-dasharray:none"
       id="rect29"
       width="19.910852"
       height="21.279392"
       x="53.419121"
       y="72.662094" />
    <rect
       style="fill:none;stroke:#000000;stroke-width:0.0893671;stroke-linecap:round;stroke-dasharray:none"
       id="rect29-7"
       width="19.921486"
       height="16.985678"
       x="95.714775"
       y="63.915047" />
    <rect
       style="fill:none;stroke:#000000;stroke-width:0.0749421;stroke-linecap:round;stroke-dasharray:none"
       id="rect29-5"
       width="19.935911"
       height="11.936164"
       x="136.76622"
       y="77.307785" />
    <rect
       style="fill:none;stroke:#000000;stroke-width:0.0725305;stroke-linecap:round;stroke-dasharray:none"
       id="rect29-6"
       width="19.938322"
       height="11.178985"
       x="167.65894"
       y="107.99765" />
    <rect
       style="fill:none;stroke:#000000;stroke-width:0.11174;stroke-linecap:round;stroke-dasharray:none"
       id="rect29-8"
       width="19.899113"
       height="26.584787"
       x="178.25648"
       y="142.85655" />
    <rect
       style="fill:none;stroke:#000000;stroke-width:0.0969943;stroke-linecap:round;stroke-dasharray:none"
       id="rect29-0"
       width="19.913858"
       height="20.016413"
       x="167.07761"
       y="186.46529" />
    <rect
       style="fill:none;stroke:#000000;stroke-width:0.0926218;stroke-linecap:round;stroke-dasharray:none"
       id="rect29-3"
       width="19.91823"
       height="18.248407"
       x="136.71065"
       y="218.41206" />
    <rect
       style="fill:none;stroke:#000000;stroke-width:0.1;stroke-linecap:round;stroke-dasharray:none"
       id="rect29-03"
       width="19.910852"
       height="21.279392"
       x="95.092346"
       y="228.80882" />
    <rect
       style="fill:none;stroke:#000000;stroke-width:0.118921;stroke-linecap:round;stroke-dasharray:none"
       id="rect29-1"
       width="19.891932"
       height="30.122364"
       x="53.398022"
       y="213.88023" />
    <rect
       style="fill:none;stroke:#000000;stroke-width:0.110676;stroke-linecap:round;stroke-dasharray:none"
       id="rect29-73"
       width="19.900177"
       height="26.079458"
       x="23.086075"
       y="183.8335" />
    <rect
       style="fill:none;stroke:#000000;stroke-width:0.1;stroke-linecap:round;stroke-dasharray:none"
       id="rect29-2"
       width="19.910852"
       height="21.279392"
       x="11.606566"
       y="145.03088" />
    <rect
       style="fill:none;stroke:#000000;stroke-width:0.0900275;stroke-linecap:round;stroke-dasharray:none"
       id="rect29-64"
       width="19.920824"
       height="17.238214"
       x="22.88158"
       y="104.68188" />
  </g>
</svg>
